<?xml version="1.0" standalone="no"?><!DOCTYPE svg PUBLIC "-//W3C//DTD SVG 1.1//EN" "http://www.w3.org/Graphics/SVG/1.1/DTD/svg11.dtd"><svg t="1716727205037" class="icon" viewBox="0 0 1024 1024" version="1.1" xmlns="http://www.w3.org/2000/svg" p-id="2809" xmlns:xlink="http://www.w3.org/1999/xlink" width="200" height="200"><path d="M896.512 289.792H502.784c9.728-17.408 14.848-37.376 14.848-57.344 0-24.064-6.656-46.592-19.968-65.536-17.408-26.112-44.032-43.52-74.752-49.664-30.72-6.144-61.952 0.512-88.064 17.92L103.936 290.304l-0.512 0.512c-1.536 1.024-3.072 2.048-4.608 3.584l-2.56 2.048s-0.512 0-0.512 0.512c-1.536 1.536-3.584 3.072-5.632 4.096l-0.512 0.512c-34.816 22.016-78.336 49.152-78.336 109.056v332.8c0 26.112 15.36 55.296 43.008 82.944 50.176 50.176 128.512 82.432 199.168 82.432H578.56c65.024 0 117.76-46.592 117.76-104.448 0-10.752-2.048-21.504-5.632-31.744 36.864-17.92 59.904-52.736 59.904-90.624 0-18.944-6.144-37.888-17.408-54.272 25.6-19.456 40.448-48.128 40.448-78.848 0-11.264-2.048-23.04-6.656-33.792h130.56c65.024 0 117.76-50.176 117.76-112.128-1.024-62.464-53.76-113.152-118.784-113.152z m-323.584 163.84c-2.048 2.048-3.584 4.608-3.584 7.68v43.008c0 5.632 4.608 10.24 10.24 10.24h108.032c13.824 8.192 22.016 20.48 22.016 32.768 0 17.92-16.896 34.304-40.448 39.424l-12.8 2.56h-102.912c-5.632 0-10.24 4.608-10.24 10.24v43.008c0 5.632 4.608 10.24 10.24 10.24h117.76c9.216 7.68 14.848 17.408 14.848 27.648 0 20.48-21.504 38.912-49.152 40.96l-27.136 2.048H512c-5.632 0-10.24 4.608-10.24 10.24v43.008c0 5.632 4.608 10.24 10.24 10.24h114.688c3.584 5.632 5.12 11.264 5.12 16.896 0 22.016-25.088 40.96-54.272 40.96H254.464c-97.792 0-179.2-74.752-179.2-102.4V409.6c0-21.504 11.776-32.256 49.152-55.808h0.512c0.512-0.512 1.536-0.512 2.048-1.024 1.536-1.024 3.584-2.56 5.632-4.096l0.512-0.512c1.024-1.024 2.56-1.536 3.584-2.56 1.024-0.512 2.048-1.536 3.072-2.048 0 0 0.512 0 0.512-0.512l230.912-155.136c11.776-8.192 26.624-10.752 40.448-8.192 14.336 2.56 26.624 10.752 34.304 23.04 6.144 8.704 9.216 19.456 9.216 30.208 0 17.92-8.704 34.816-23.552 45.056l-84.48 56.32c-3.584 2.56-5.632 7.168-4.096 11.264 1.536 4.096 5.12 7.168 9.728 7.168h544.256c29.696 0 54.272 22.016 54.272 49.152s-24.064 49.152-54.272 49.152h-315.904c-3.584-1.024-6.144 0.512-8.192 2.56z" p-id="2810"></path></svg>